<?xml version="1.0" encoding="UTF-8"?>
<svg version="1.1" xmlns="http://www.w3.org/2000/svg" width="1024" height="1024">
<path d="M0 0 C337.92 0 675.84 0 1024 0 C1024 337.92 1024 675.84 1024 1024 C686.08 1024 348.16 1024 0 1024 C0 686.08 0 348.16 0 0 Z " fill="#EAE4DD" transform="translate(0,0)"/>
<path d="M0 0 C337.92 0 675.84 0 1024 0 C1024 337.92 1024 675.84 1024 1024 C686.08 1024 348.16 1024 0 1024 C0 686.08 0 348.16 0 0 Z M443 74 C441.72237793 74.21430664 440.44475586 74.42861328 439.12841797 74.64941406 C381.19250336 84.66122977 323.61885724 105.11820033 274 137 C273.22769043 137.4959668 272.45538086 137.99193359 271.65966797 138.50292969 C239.99126632 158.98380253 208.38798185 183.09632511 183.8046875 211.9140625 C181.60983863 214.45096574 179.3358105 216.90821626 177.0625 219.375 C172.47325658 224.42454178 168.15544872 229.58904625 164 235 C163.46745605 235.6923877 162.93491211 236.38477539 162.38623047 237.09814453 C148.66740183 254.99340374 136.28431453 273.47809903 125 293 C124.51031738 293.84481934 124.02063477 294.68963867 123.51611328 295.56005859 C79.45330495 372.22324342 59.75199608 464.79071496 77 605 C77.23686523 606.05223755 77.23686523 606.05223755 77.47851562 607.12573242 C84.66131224 638.94083698 94.61821469 669.22002237 108 699 C108.38365723 699.85835449 108.76731445 700.71670898 109.16259766 701.60107422 C126.92879841 741.04407748 151.29852286 776.7485566 180 809 C180.70431152 809.79325684 180.70431152 809.79325684 181.42285156 810.60253906 C193.45559942 824.08024878 206.03417323 837.97005172 220.41796875 848.953125 C222.77958679 850.82527001 224.99758104 852.77888994 227.234375 854.796875 C262.88508752 886.66417171 307.65907417 910.75913207 352 928 C352.97694824 928.3810791 353.95389648 928.7621582 354.96044922 929.15478516 C382.56639784 939.79547516 410.84904446 947.11348989 440 952 C441.19077148 952.19964355 442.38154297 952.39928711 443.60839844 952.60498047 C483.83300236 959.17962263 524.57565628 960.1101745 565 955 C566.13518066 954.86078125 567.27036133 954.7215625 568.43994141 954.578125 C638.87722945 945.7363675 706.74291916 919.53787528 765 879 C765.94625244 878.34306152 765.94625244 878.34306152 766.91162109 877.67285156 C780.14249496 868.4472066 792.86314735 858.62828904 805 848 C805.69552979 847.39349609 806.39105957 846.78699219 807.10766602 846.16210938 C814.21106703 839.8752164 820.94550285 833.24066045 827.65014648 826.53515625 C829.5575894 824.62990496 831.47291467 822.73282387 833.38867188 820.8359375 C840.39532281 813.86099498 846.87466906 806.769555 853 799 C853.92267658 797.90957777 854.85232975 796.82496557 855.79296875 795.75 C877.50198109 770.81827947 895.79164625 741.97841249 909.96777344 712.14550781 C911.13160671 709.72645228 912.33461694 707.32877189 913.5390625 704.9296875 C928.04101207 675.74994447 938.37616805 644.64851247 946 613 C946.2072168 612.14470703 946.41443359 611.28941406 946.62792969 610.40820312 C950.44193174 594.42516881 953.02925742 578.30876108 955 562 C955.08827057 561.31014008 955.17654114 560.62028015 955.26748657 559.90951538 C957.22811462 544.34924455 957.35661983 528.85425387 957.3125 513.1875 C957.31026428 511.22952484 957.31026428 511.22952484 957.3079834 509.23199463 C957.26839778 489.96118389 956.75131132 471.09018704 954 452 C953.86078125 450.95086426 953.7215625 449.90172852 953.578125 448.82080078 C944.17170121 378.34883178 915.35095218 309.06391591 873 252 C872.4755127 251.29149902 871.95102539 250.58299805 871.41064453 249.85302734 C861.30709291 236.27135311 850.40641382 223.50017953 839 211 C838.09365826 210.00008315 837.18741289 209.00007893 836.28125 208 C829.22280399 200.22986994 822.08217805 192.67689899 814.109375 185.83203125 C811.82370454 183.84688413 809.60298622 181.7996017 807.375 179.75 C801.79009611 174.71679635 795.91133881 170.12332721 789.96435547 165.53173828 C787.93010738 163.94550008 785.91896879 162.33314578 783.91015625 160.71484375 C759.62818111 141.27819493 732.6904438 125.99618625 705 112 C704.25572754 111.62246582 703.51145508 111.24493164 702.74462891 110.85595703 C651.25949161 84.98579954 588.99179459 70.1019196 531.33984375 69.76171875 C530.66273094 69.75685392 529.98561813 69.7519891 529.28798676 69.74697685 C524.17116375 69.71068105 519.05444127 69.69428764 513.9375 69.6875 C512.81053396 69.68577412 512.81053396 69.68577412 511.66080093 69.68401337 C488.55959539 69.6594229 465.82495489 70.08715059 443 74 Z " fill="#034A0F" transform="translate(0,0)"/>
<path d="M0 0 C6.61793728 1.92767375 11.72237913 8.07418084 16.390625 12.890625 C18.06795441 14.575596 19.8015316 16.12788679 21.60546875 17.67578125 C25.66481588 21.17440144 29.57197174 24.82342955 33.48046875 28.48828125 C38.48915799 33.18258157 43.53013801 37.83118627 48.6484375 42.40625 C51.48605005 44.95513886 54.29725167 47.53213415 57.10546875 50.11328125 C60.732857 53.44661903 64.37440012 56.76274486 68.04296875 60.05078125 C72.49756785 64.04776503 76.89465354 68.10402534 81.28662109 72.16943359 C85.35158686 75.92806105 89.45531781 79.64077968 93.578125 83.3359375 C96.43629078 85.911379 99.27257136 88.51013889 102.10546875 91.11328125 C105.75474046 94.46621242 109.41716473 97.80326482 113.10546875 101.11328125 C116.79377365 104.42329847 120.4561264 107.76042625 124.10546875 111.11328125 C129.40668798 115.9827117 134.74651686 120.80751149 140.10546875 125.61328125 C145.98378184 130.88480073 151.83223765 136.18672965 157.64624023 141.52905273 C160.76144068 144.38901512 163.89381415 147.22828126 167.04296875 150.05078125 C171.49833679 154.04845498 175.89630394 158.1052901 180.28881836 162.17163086 C183.53912226 165.17724198 186.8084395 168.15880049 190.10546875 171.11328125 C193.97209651 174.57818145 197.79552365 178.08641435 201.60546875 181.61328125 C209.16173713 188.60484237 216.7688456 195.52999837 224.609375 202.203125 C227.21011231 204.6544727 227.11004938 205.75056929 227.2341032 209.46864033 C227.24095703 211.18833467 227.24216221 212.90805642 227.23918152 214.62776184 C227.24144708 215.57332701 227.24371263 216.51889218 227.24604684 217.49311084 C227.25240855 220.6813732 227.25155609 223.86959329 227.25073242 227.05786133 C227.25372259 229.33572953 227.25712478 231.61359722 227.26091003 233.89146423 C227.26976939 240.09396576 227.27208898 246.2964535 227.27272582 252.49896073 C227.27367347 257.67055937 227.27735015 262.84215477 227.28089792 268.01375216 C227.28858393 279.51518822 227.29156587 291.01661639 227.29089256 302.51805464 C227.29083263 303.55386247 227.29083263 303.55386247 227.29077148 304.6105957 C227.2907306 305.30197577 227.29068972 305.99335585 227.2906476 306.70568683 C227.29024122 317.90868665 227.29980792 329.11165285 227.31390985 340.31464294 C227.32826906 351.81261029 227.33499707 363.31055688 227.33431607 374.80853385 C227.3340607 381.26580698 227.33693333 387.7230421 227.34749413 394.18030739 C227.35715458 400.25329381 227.35726839 406.32620571 227.34997749 412.39919472 C227.34892905 414.63048918 227.35130986 416.86178823 227.35733795 419.0930748 C227.36502423 422.13475489 227.3604353 425.17617546 227.35270691 428.21784973 C227.35785047 429.10462129 227.36299404 429.99139285 227.36829346 430.90503627 C227.34403972 435.21315281 227.26082834 438.75306986 225.10546875 442.61328125 C220.40157801 446.17298235 215.71619251 446.73245152 209.95094299 446.76045227 C208.42647049 446.77118523 208.42647049 446.77118523 206.87120056 446.78213501 C205.76716385 446.78482391 204.66312714 446.78751282 203.52563477 446.7902832 C201.76872314 446.80014 201.76872314 446.80014 199.97631836 446.81019592 C196.10400324 446.82989261 192.23172677 446.84158109 188.359375 446.8515625 C187.02314674 446.85561262 185.68691869 446.85972962 184.35069084 446.86391258 C178.074816 446.88294049 171.79895277 446.89717956 165.52305466 446.90552455 C158.28859224 446.91530464 151.05443516 446.94165394 143.82008034 446.98202544 C138.2199295 447.01220142 132.61986617 447.02699459 127.01963562 447.03030556 C123.6781248 447.03265333 120.33720054 447.04355763 116.99572945 447.06676674 C113.26846937 447.09105446 109.54201187 447.09021199 105.81469727 447.08325195 C104.16167854 447.10246704 104.16167854 447.10246704 102.4752655 447.12207031 C96.58472529 447.08193545 92.5822158 446.88417198 88.10546875 442.61328125 C86.13942105 438.72629374 85.85345199 435.5090539 85.84718323 431.18385315 C85.84035522 429.88460403 85.83352722 428.58535492 85.82649231 427.24673462 C85.82891161 425.81365939 85.83149589 424.38058443 85.83422852 422.94750977 C85.82983934 421.4325584 85.82453649 419.91760944 85.81838989 418.40266418 C85.80689825 415.14242134 85.80143104 411.88224343 85.8005085 408.62198067 C85.79856348 403.45511631 85.78048343 398.28838532 85.75975037 393.12156677 C85.71060768 380.28068711 85.6797576 367.43977105 85.65844727 354.59881592 C85.64187517 344.63125036 85.61890405 334.66379892 85.57542652 324.69630951 C85.55378413 319.57285389 85.54557988 314.44961575 85.54781926 309.32611763 C85.54613753 306.11866446 85.53199706 302.91134987 85.51460648 299.70394707 C85.50906599 298.23111873 85.50846632 296.75826092 85.51354408 295.28543091 C85.58522644 272.03100301 78.56192222 250.95215638 62.375 233.8828125 C61.62605469 233.13386719 60.87710937 232.38492188 60.10546875 231.61328125 C59.40808594 230.91589844 58.71070313 230.21851563 57.9921875 229.5 C48.54430491 220.60482718 37.4219331 214.54732122 25.10546875 210.61328125 C24.3364624 210.35361572 23.56745605 210.0939502 22.77514648 209.82641602 C14.96934011 207.4037756 7.55366915 207.11001746 -0.58203125 207.17578125 C-1.24472015 207.1794873 -1.90740906 207.18319336 -2.59017944 207.18701172 C-26.75302188 207.37939046 -47.07415908 215.626956 -64.6015625 232.16796875 C-82.1490906 250.33545561 -89.3940121 273.40111118 -89.27929688 298.3359375 C-89.28341402 299.85534571 -89.28888158 301.37475075 -89.295578 302.89414978 C-89.30719788 306.13464359 -89.30982576 309.37496759 -89.30522156 312.61547852 C-89.29835261 317.7430881 -89.31437686 322.87047798 -89.33361816 327.99804688 C-89.37448217 339.79499374 -89.38602595 351.59193319 -89.39714813 363.3889389 C-89.40766664 374.23202604 -89.42443606 385.07500596 -89.46524382 395.91802692 C-89.48356672 401.01278847 -89.48750546 406.10729413 -89.48030853 411.20208073 C-89.47878578 414.36761436 -89.48957454 417.53301991 -89.5036869 420.69851875 C-89.507685 422.16343261 -89.50657229 423.62837089 -89.49991417 425.09327507 C-89.4915112 427.09602709 -89.50327832 429.0988332 -89.51599121 431.1015625 C-89.51705997 432.78052612 -89.51705997 432.78052612 -89.51815033 434.4934082 C-90.09398906 439.26661435 -91.43331107 442.46623283 -95.25275517 445.46447182 C-98.11958439 446.71114843 -100.04938357 446.99032795 -103.16294861 446.99423218 C-104.20450607 447.00269165 -105.24606354 447.01115112 -106.31918335 447.01986694 C-107.45127228 447.01379425 -108.58336121 447.00772156 -109.74975586 447.00146484 C-110.95029099 447.0067218 -112.15082611 447.01197876 -113.38774109 447.01739502 C-116.67299009 447.02832471 -119.95787557 447.02577891 -123.243119 447.01625776 C-126.68630264 447.00864797 -130.12946247 447.01571059 -133.57264709 447.02041626 C-139.35536033 447.02587072 -145.13795854 447.01869116 -150.9206543 447.00439453 C-157.59801078 446.98807623 -164.27509232 446.99335164 -170.95244211 447.00987375 C-176.69274045 447.02350673 -182.43295621 447.02539922 -188.17326552 447.01755774 C-191.59845041 447.01289015 -195.02350627 447.01223091 -198.44868279 447.02216721 C-202.26928153 447.02978592 -206.08935265 447.0181701 -209.90991211 447.00146484 C-211.03997681 447.00753754 -212.1700415 447.01361023 -213.33435059 447.01986694 C-223.36001044 446.93865894 -223.36001044 446.93865894 -227.89453125 443.61328125 C-231.54317154 439.06729759 -231.32021104 434.84767189 -231.2822113 429.2827301 C-231.28759684 428.33939078 -231.29298238 427.39605145 -231.29853112 426.42412609 C-231.31284561 423.26121527 -231.30569826 420.0987209 -231.29858398 416.93579102 C-231.30428571 414.66895205 -231.3112492 412.40211597 -231.31938171 410.13528442 C-231.33734984 403.97624188 -231.33613785 397.81734151 -231.33043933 391.65828061 C-231.32735282 386.51892598 -231.33343393 381.37959887 -231.33947808 376.24024814 C-231.35433758 363.42404191 -231.35069968 350.60793566 -231.33861477 337.79173332 C-231.32868229 326.66391532 -231.34162309 315.53626359 -231.36554896 304.40847123 C-231.38993745 292.9793133 -231.39914868 281.55026215 -231.39289623 270.12107319 C-231.38952175 263.70569443 -231.39197451 257.29045306 -231.40914726 250.87509346 C-231.4245888 244.8430167 -231.42069159 238.81125795 -231.40184212 232.77919388 C-231.39814856 230.56444422 -231.40128692 228.34967114 -231.41172791 226.13494301 C-231.42488662 223.11319846 -231.41343517 220.09251463 -231.39573669 217.07081604 C-231.4053417 216.19289463 -231.41494671 215.31497322 -231.42484277 214.41044813 C-231.3459571 207.8714488 -229.48577831 204.21908588 -224.80859375 199.515625 C-224.05320312 198.86722656 -223.2978125 198.21882812 -222.51953125 197.55078125 C-218.19507629 193.77008173 -213.96405048 189.91137395 -209.76953125 185.98828125 C-206.20761686 182.66646942 -202.64931453 179.35323636 -198.95703125 176.17578125 C-194.35465867 172.2068535 -189.95442751 168.02084773 -185.52148438 163.86523438 C-182.03218652 160.59769924 -178.52517179 157.35752417 -174.95703125 154.17578125 C-170.53481151 150.22605243 -166.21256674 146.17599463 -161.89453125 142.11328125 C-156.75082527 137.27456398 -151.57635925 132.48133502 -146.30859375 127.77734375 C-143.52731463 125.28409354 -140.77108374 122.76420996 -138.01953125 120.23828125 C-137.51647461 119.77647461 -137.01341797 119.31466797 -136.49511719 118.83886719 C-135.47222475 117.89952946 -134.44943884 116.96007571 -133.42675781 116.02050781 C-130.91776013 113.71619573 -128.40602657 111.41487034 -125.89453125 109.11328125 C-124.89451773 108.19662933 -123.89451774 107.27996265 -122.89453125 106.36328125 C-116.89453125 100.86328125 -110.89453125 95.36328125 -104.89453125 89.86328125 C-104.39937012 89.40937012 -103.90420898 88.95545898 -103.39404297 88.48779297 C-102.39572464 87.57269492 -101.39735239 86.6576557 -100.39892578 85.74267578 C-97.87274705 83.42749273 -95.34756293 81.11124115 -92.82421875 78.79296875 C-88.2210336 74.56561374 -83.61039349 70.34802042 -78.95703125 66.17578125 C-73.98940742 61.7168421 -69.08769873 57.18889794 -64.1875 52.65625 C-59.59882396 48.41256693 -54.98821522 44.19287584 -50.37841797 39.97216797 C-47.88288718 37.68685629 -45.38878598 35.39998545 -42.89453125 33.11328125 C-41.894538 32.19660721 -40.89453801 31.27994055 -39.89453125 30.36328125 C-39.15203125 29.68265625 -39.15203125 29.68265625 -38.39453125 28.98828125 C-36.89453125 27.61328125 -35.39453125 26.23828125 -33.89453125 24.86328125 C-33.39912842 24.40904785 -32.90372559 23.95481445 -32.39331055 23.48681641 C-31.39783921 22.57453073 -30.40191141 21.66274289 -29.40551758 20.75146484 C-26.8321716 18.39674164 -24.26844018 16.03267893 -21.71875 13.65234375 C-6.58876844 -0.44604815 -6.58876844 -0.44604815 0 0 Z " fill="#044A0F" transform="translate(513.89453125,331.38671875)"/>
<path d="M0 0 C0.90363281 -0.02835938 1.80726563 -0.05671875 2.73828125 -0.0859375 C9.81273101 1.01973809 14.67148158 5.89415109 19.625 10.6875 C20.86119989 11.86019702 22.09817223 13.03208033 23.3359375 14.203125 C23.91956055 14.75806641 24.50318359 15.31300781 25.10449219 15.88476562 C26.94576225 17.61812658 28.83238234 19.28916482 30.75 20.9375 C34.89423724 24.51134759 38.88924558 28.24160896 42.89941406 31.96411133 C45.89146751 34.73590428 48.90709844 37.46522667 52 40.125 C55.4056462 43.06656443 58.54772151 46.2197893 61.70703125 49.421875 C64.16436207 51.84527817 66.74818939 54.08562269 69.36328125 56.3359375 C72.31160542 58.9225345 75.18661509 61.58339896 78.0625 64.25 C84.32886574 70.05629205 90.66475555 75.78063433 97.03515625 81.47265625 C102.58953099 86.44901476 108.07257728 91.49610224 113.51464844 96.59472656 C116.50812323 99.38991191 119.53668017 102.13060638 122.62890625 104.81640625 C126.68077177 108.3425612 130.59785755 111.99722116 134.5 115.6875 C142.10417887 122.84603862 149.74128451 129.96060003 157.625 136.8125 C164.23559312 142.56317857 170.639371 148.5498003 177.06640625 154.50390625 C177.62948486 155.02509033 178.19256348 155.54627441 178.77270508 156.08325195 C179.83993836 157.07160481 180.90626541 158.06093766 181.97143555 159.05151367 C184.80263095 161.67437841 187.67200261 164.24263503 190.5859375 166.7734375 C194.67305625 170.33456861 198.62504233 174.02496035 202.5625 177.75 C207.74623881 182.63233083 212.96164104 187.46762762 218.2734375 192.2109375 C221.05471707 194.70418812 223.81091129 197.22411034 226.5625 199.75 C227.06410645 200.21035645 227.56571289 200.67071289 228.08251953 201.14501953 C230.13170961 203.02644733 232.18009342 204.90875188 234.22851562 206.79101562 C239.36223745 211.50725563 244.49997157 216.21782591 249.6875 220.875 C258.1418462 228.46638263 266.48333861 236.18132799 274.82910156 243.89160156 C279.44443174 248.15423785 284.07285161 252.40240382 288.70703125 256.64453125 C290.74893328 258.51385919 292.78763497 260.38659841 294.82421875 262.26171875 C301.16659209 268.10162182 301.16659209 268.10162182 307.625 273.8125 C311.27022412 276.97526798 314.8266463 280.22952046 318.375 283.5 C318.92212646 284.00329834 319.46925293 284.50659668 320.03295898 285.02514648 C323.32689786 288.07037267 326.53150503 291.18566705 329.6875 294.375 C330.5846875 295.24125 330.5846875 295.24125 331.5 296.125 C333.4159555 299.75523147 333.59281444 303.39638128 332.6875 307.375 C329.67452451 313.23860365 325.50083942 318.32239034 321.3125 323.375 C320.73814209 324.07197998 320.16378418 324.76895996 319.57202148 325.48706055 C318.44649586 326.84938797 317.31858931 328.20975282 316.18798828 329.56787109 C314.94621709 331.06341135 313.71917425 332.57116711 312.49609375 334.08203125 C308.75642331 338.59138778 305.58717455 341.66927532 299.59375 342.75390625 C292.89679615 343.29287343 289.63455947 340.51730526 284.6875 336.375 C282.17198958 334.16180642 279.7346705 331.87708963 277.3125 329.5625 C275.99673006 328.31963852 274.6803236 327.07745054 273.36328125 325.8359375 C272.41702881 324.94213379 272.41702881 324.94213379 271.45166016 324.03027344 C268.39536597 321.1626185 265.26897612 318.37486008 262.14453125 315.58203125 C259.3069187 313.03314239 256.49571708 310.4561471 253.6875 307.875 C250.06011175 304.54166222 246.41856863 301.22553639 242.75 297.9375 C238.863793 294.45051811 235.01911373 290.92163607 231.1875 287.375 C225.73124396 282.32550038 220.2264628 277.33377684 214.6875 272.375 C208.80947061 267.10471517 202.96249615 261.80267815 197.14892578 256.46142578 C194.01118887 253.58106171 190.85746182 250.71983753 187.6875 247.875 C181.46180989 242.28580217 175.30696922 236.61975942 169.14648438 230.95898438 C163.21131492 225.50647165 157.25713821 220.07734424 151.2578125 214.6953125 C148.34321553 212.06420217 145.45210776 209.40847525 142.5625 206.75 C139.32536909 203.7727736 136.07612144 200.81547034 132.75 197.9375 C126.93535122 192.8917304 121.33207373 187.60905928 115.6875 182.375 C108.92489865 176.11102364 102.14633969 169.87058362 95.28125 163.71875 C92.22858319 160.96031613 89.20667344 158.16997956 86.1875 155.375 C81.56399899 151.09522376 76.90657612 146.85741345 72.21484375 142.65234375 C69.35667758 140.0769019 66.52043383 137.47810304 63.6875 134.875 C57.59987686 129.28314003 51.45937468 123.7517847 45.30078125 118.23828125 C40.56145278 113.98738599 35.86028663 109.69870559 31.1875 105.375 C25.7274863 100.32875607 20.25725633 95.30039466 14.6875 90.375 C13.78128906 89.53195312 12.87507813 88.68890625 11.94140625 87.8203125 C6.26533947 82.59516829 6.26533947 82.59516829 -0.875 80.25 C-7.13761508 80.95203692 -11.11280411 86.12313398 -15.3125 90.375 C-16.86515912 91.78177169 -18.42774387 93.17766513 -20 94.5625 C-24.36520019 98.48635294 -28.65464746 102.48690026 -32.9375 106.5 C-37.30962901 110.59648192 -41.70238408 114.6437746 -46.2421875 118.5546875 C-50.79060412 122.55386135 -55.19844391 126.71266708 -59.64111328 130.82861328 C-65.80561365 136.53208178 -71.99757875 142.20548997 -78.25 147.8125 C-83.21762383 152.27143915 -88.11933252 156.79938331 -93.01953125 161.33203125 C-97.60820729 165.57571432 -102.21881603 169.79540541 -106.82861328 174.01611328 C-109.32414407 176.30142496 -111.81824527 178.5882958 -114.3125 180.875 C-115.31249325 181.79167404 -116.31249324 182.7083407 -117.3125 183.625 C-117.8075 184.07875 -118.3025 184.5325 -118.8125 185 C-123.3125 189.125 -123.3125 189.125 -124.81225586 190.49975586 C-125.81309668 191.41720685 -126.81391045 192.33468736 -127.81469727 193.25219727 C-130.30161261 195.53210551 -132.78898315 197.81151293 -135.27734375 200.08984375 C-136.26827011 200.99735112 -137.25915545 201.9049033 -138.25 202.8125 C-138.74097168 203.26222168 -139.23194336 203.71194336 -139.73779297 204.17529297 C-142.92317409 207.09531204 -146.09947751 210.02495444 -149.27172852 212.95922852 C-153.59507748 216.95815206 -157.92719804 220.94383934 -162.3125 224.875 C-170.32551363 232.0621958 -178.20262337 239.39711591 -186.06298828 246.75048828 C-192.41843034 252.69579846 -198.81792099 258.58135363 -205.3125 264.375 C-212.17693795 270.52740548 -218.99222111 276.73138505 -225.78027344 282.96777344 C-228.28927114 285.27208554 -230.80102172 287.57339228 -233.3125 289.875 C-234.31380883 290.79296139 -235.31511091 291.71093014 -236.31640625 292.62890625 C-238.30281882 294.44983831 -240.28984387 296.27009856 -242.27734375 298.08984375 C-243.26825646 298.99736604 -244.25914184 299.90491816 -245.25 300.8125 C-245.73952148 301.26077148 -246.22904297 301.70904297 -246.73339844 302.17089844 C-249.38725939 304.60317152 -252.03510577 307.04169504 -254.67578125 309.48828125 C-259.77895265 314.21566899 -264.88177545 318.92399541 -270.15625 323.4609375 C-271.93808181 325.04263603 -273.67626418 326.65160597 -275.40625 328.2890625 C-290.88194666 342.92568834 -290.88194666 342.92568834 -301.6015625 342.94140625 C-308.34401229 341.53268115 -312.45319087 336.33887923 -316.6875 331.3125 C-317.25186768 330.65072754 -317.81623535 329.98895508 -318.39770508 329.30712891 C-333.31681713 311.64307087 -333.31681713 311.64307087 -333.7734375 301.53515625 C-332.5348739 295.73070142 -327.67311338 291.44314768 -323.5625 287.4375 C-323.02810303 286.91027344 -322.49370605 286.38304687 -321.94311523 285.83984375 C-318.56167403 282.52724504 -315.09914568 279.344646 -311.49609375 276.2734375 C-308.58591902 273.74330348 -305.76446171 271.12239233 -302.9375 268.5 C-299.08659498 264.93057295 -295.22372231 261.3785379 -291.3125 257.875 C-287.49045545 254.44876589 -283.70613738 250.98467236 -279.9375 247.5 C-279.3906958 246.9944458 -278.8438916 246.4888916 -278.28051758 245.96801758 C-277.17381285 244.94467798 -276.0671234 243.92132185 -274.96044922 242.89794922 C-268.51314607 236.93968596 -262.0625736 230.99435843 -255.4296875 225.2421875 C-252.20206519 222.39568664 -249.04191712 219.47606375 -245.875 216.5625 C-241.90377256 212.91056723 -237.89876122 209.29804463 -233.8828125 205.6953125 C-230.96821553 203.06420217 -228.07710776 200.40847525 -225.1875 197.75 C-221.95036909 194.7727736 -218.70112144 191.81547034 -215.375 188.9375 C-210.14675931 184.40059693 -205.09763617 179.66624212 -200.02246094 174.95996094 C-178.71654843 155.21153376 -178.71654843 155.21153376 -168.375 145.9375 C-164.53333558 142.48922201 -160.72786496 139.00438399 -156.9375 135.5 C-156.39077637 134.99452637 -155.84405273 134.48905273 -155.28076172 133.96826172 C-154.17397866 132.94483744 -153.06720784 131.92139993 -151.96044922 130.89794922 C-139.39075316 119.28168788 -139.39075316 119.28168788 -134.375 114.9375 C-129.12899204 110.38661525 -124.06889691 105.63200339 -118.97509766 100.91259766 C-115.42628566 97.63059796 -111.85836177 94.36942827 -108.29296875 91.10546875 C-106.25106672 89.23614081 -104.21236503 87.36340159 -102.17578125 85.48828125 C-93.55928819 77.56067708 -93.55928819 77.56067708 -89.5 74.0625 C-84.86573247 70.04742479 -80.42202259 65.82836305 -75.94873047 61.63623047 C-71.60112081 57.5658283 -67.20999008 53.5511976 -62.76953125 49.58203125 C-59.93191803 47.03314179 -57.12077101 44.45608903 -54.3125 41.875 C-49.01136138 37.00543762 -43.66969824 32.18274201 -38.3125 27.375 C-37.466875 26.611875 -36.62125 25.84875 -35.75 25.0625 C-8.10507447 0.11464037 -8.10507447 0.11464037 0 0 Z " fill="#044A0F" transform="translate(512.3125,198.625)"/>
<path d="M0 0 C0.66 0.33 1.32 0.66 2 1 C1.70867187 1.69222656 1.41734375 2.38445312 1.1171875 3.09765625 C-5.6327776 19.208422 -11.7421916 35.3323117 -17 52 C-17.33 52 -17.66 52 -18 52 C-17.47157858 44.81000364 -15.31134037 38.60771888 -12.8125 31.875 C-12.40974854 30.77003174 -12.00699707 29.66506348 -11.59204102 28.52661133 C-8.97615474 21.42038967 -6.1772825 14.44524161 -2.99609375 7.57421875 C-1.75941667 4.83829358 -1.75941667 4.83829358 -2 1 C-1.34 0.67 -0.68 0.34 0 0 Z " fill="#0F320F" transform="translate(105,329)"/>
<path d="M0 0 C4.09186347 1.65058261 6.97872536 4.57175696 10.125 7.5625 C11.28989374 8.65414849 12.45526274 9.74529003 13.62109375 10.8359375 C14.19456543 11.37444336 14.76803711 11.91294922 15.35888672 12.46777344 C17.60985973 14.56939597 19.89509191 16.63123537 22.1875 18.6875 C22.97511719 19.39519531 23.76273438 20.10289062 24.57421875 20.83203125 C26.30169576 22.37591167 28.0339931 23.91440575 29.76953125 25.44921875 C30.67058594 26.24972656 31.57164062 27.05023438 32.5 27.875 C33.3146875 28.59429687 34.129375 29.31359375 34.96875 30.0546875 C37 32 37 32 39 35 C36.07356763 33.67143806 33.9299237 32.20435823 31.609375 29.98828125 C30.67508667 29.10426636 30.67508667 29.10426636 29.72192383 28.20239258 C29.07118896 27.57872803 28.4204541 26.95506348 27.75 26.3125 C26.39537666 25.03035621 25.03991757 23.74909479 23.68359375 22.46875 C23.04019043 21.8603125 22.39678711 21.251875 21.73388672 20.625 C19.23050864 18.27883209 16.64828089 16.03338418 14.05078125 13.79296875 C11.16793059 11.2725336 8.33153141 8.70282619 5.5 6.125 C4.95835205 5.63555908 4.4167041 5.14611816 3.85864258 4.6418457 C2.55291571 3.44891007 1.27373728 2.22703358 0 1 C0 0.67 0 0.34 0 0 Z " fill="#EBEFE9" transform="translate(706,453)"/>
<path d="M0 0 C3.03726958 1.36610268 5.20915026 2.93073807 7.609375 5.23046875 C8.28226563 5.86919922 8.95515625 6.50792969 9.6484375 7.16601562 C10.68871094 8.16665039 10.68871094 8.16665039 11.75 9.1875 C13.11849162 10.49485178 14.48828217 11.80084525 15.859375 13.10546875 C16.87741211 14.07492432 16.87741211 14.07492432 17.91601562 15.06396484 C20.62236286 17.57817918 23.42073252 19.97484786 26.24707031 22.3527832 C28.09739131 24.09151799 29.53611644 25.93047822 31 28 C27.6092481 26.54682061 25.58699688 24.58699688 23 22 C22.01 21.67 21.02 21.34 20 21 C18.24609375 19.1875 18.24609375 19.1875 16.4375 17 C14.07789673 14.05040821 14.07789673 14.05040821 11 12 C11 11.34 11 10.68 11 10 C10.443125 9.773125 9.88625 9.54625 9.3125 9.3125 C6.36703501 7.6407496 4.35675815 5.41718785 2 3 C1.01 2.34 0.02 1.68 -1 1 C-0.67 0.67 -0.34 0.34 0 0 Z " fill="#EBEFE8" transform="translate(748,491)"/>
<path d="M0 0 C5.99952809 2.53826189 10.52187293 7.41525086 15 12 C16.33197348 13.3346918 17.66541764 14.66791686 19 16 C22 19 25 22 28 25 C20.25013784 21.42054297 14.26331305 14.43070198 8.0625 8.6875 C7.38727295 8.06456055 6.7120459 7.44162109 6.01635742 6.79980469 C5.38318604 6.20973633 4.75001465 5.61966797 4.09765625 5.01171875 C3.52539307 4.48022217 2.95312988 3.94872559 2.36352539 3.40112305 C1 2 1 2 0 0 Z " fill="#EAEEE7" transform="translate(725,385)"/>
<path d="M0 0 C0.66 0.33 1.32 0.66 2 1 C1.70230713 1.52956299 1.40461426 2.05912598 1.09790039 2.60473633 C-0.24990512 5.00583566 -1.59374141 7.40913369 -2.9375 9.8125 C-3.64036133 11.06256836 -3.64036133 11.06256836 -4.35742188 12.33789062 C-5.0293457 13.54155273 -5.0293457 13.54155273 -5.71484375 14.76953125 C-6.12855225 15.50792236 -6.54226074 16.24631348 -6.96850586 17.00708008 C-8.1239907 19.11325355 -8.1239907 19.11325355 -9 22 C-9.66 22 -10.32 22 -11 22 C-11.268125 22.763125 -11.53625 23.52625 -11.8125 24.3125 C-12.94424112 26.87380884 -13.91223401 28.19692938 -16 30 C-14.49263127 24.63952582 -11.98708721 20.28118896 -9.125 15.5625 C-8.25221576 14.10570138 -7.37981555 12.64867261 -6.5078125 11.19140625 C-6.08790039 10.49289551 -5.66798828 9.79438477 -5.23535156 9.07470703 C-3.44814672 6.07319187 -1.72191225 3.03937534 0 0 Z " fill="#103110" transform="translate(906,719)"/>
<path d="M0 0 C-0.0721875 0.74725342 -0.144375 1.49450684 -0.21875 2.2644043 C0.05769853 5.72155359 0.956544 6.484395 3.5 8.76953125 C4.221875 9.43017578 4.94375 10.09082031 5.6875 10.77148438 C6.8321875 11.78178711 6.8321875 11.78178711 8 12.8125 C8.763125 13.50537109 9.52625 14.19824219 10.3125 14.91210938 C12.19769181 16.62056445 14.09337882 18.31554329 16 20 C15.67 20.66 15.34 21.32 15 22 C14.27296875 21.25556641 14.27296875 21.25556641 13.53125 20.49609375 C10.04293497 16.96082063 6.52904121 13.53747126 2.75 10.3125 C-0.21052644 7.77157573 -2.69444699 5.17013538 -5 2 C-2 0 -2 0 0 0 Z " fill="#EBEEE6" transform="translate(695,487)"/>
<path d="M0 0 C0.66 0.33 1.32 0.66 2 1 C0.02 3.31 -1.96 5.62 -4 8 C-4.7425 7.814375 -5.485 7.62875 -6.25 7.4375 C-8.94990963 7.00796892 -10.44631077 7.14877026 -13 8 C-10.61664713 5.32561064 -8.12963852 3.84841988 -4.9375 2.25 C-4.05964844 1.80140625 -3.18179687 1.3528125 -2.27734375 0.890625 C-1.52582031 0.59671875 -0.77429688 0.3028125 0 0 Z " fill="#EEEDE7" transform="translate(314,115)"/>
<path d="M0 0 C2.48620049 1.06551449 4.03717151 2.03837059 5.9375 4 C7.88864226 6.15545512 7.88864226 6.15545512 10.625 7 C13.54190545 8.22817072 13.79757555 9.16571379 15 12 C16.5412312 13.70921589 16.5412312 13.70921589 18 15 C17.67 15.66 17.34 16.32 17 17 C16.5875 16.57589844 16.175 16.15179688 15.75 15.71484375 C11.88995914 11.79448975 7.91042956 8.11918242 3.69921875 4.578125 C2 3 2 3 0 0 Z " fill="#E9EDE6" transform="translate(658,324)"/>
<path d="M0 0 C4.29750443 1.70418279 7.30876295 4.82482661 10.625 7.9375 C11.21023438 8.47568359 11.79546875 9.01386719 12.3984375 9.56835938 C14.98772823 11.97651853 17.01974815 14.02962222 19 17 C15.04322598 15.32598022 12.15535787 12.86850715 9 10 C9 9.34 9 8.68 9 8 C8.443125 7.79375 7.88625 7.5875 7.3125 7.375 C4.07498698 5.44999226 2.31768859 2.96149098 0 0 Z " fill="#0B2E0B" transform="translate(809,464)"/>
<path d="M0 0 C4.29750443 1.70418279 7.30876295 4.82482661 10.625 7.9375 C11.21023438 8.47568359 11.79546875 9.01386719 12.3984375 9.56835938 C14.98772823 11.97651853 17.01974815 14.02962222 19 17 C15.96431286 15.63075943 13.75314429 14.05152298 11.328125 11.77734375 C10.66425781 11.15666016 10.00039063 10.53597656 9.31640625 9.89648438 C8.63449219 9.25001953 7.95257812 8.60355469 7.25 7.9375 C6.55261719 7.28716797 5.85523438 6.63683594 5.13671875 5.96679688 C1.3613758 2.4167924 1.3613758 2.4167924 0 1 C0 0.67 0 0.34 0 0 Z " fill="#EDF1EA" transform="translate(616,371)"/>
<path d="M0 0 C0.99 0.33 1.98 0.66 3 1 C0.43571997 5.17882671 -2.01930733 8.12505529 -6 11 C-6.33 9.35 -6.66 7.7 -7 6 C-5.35 6 -3.7 6 -2 6 C-2.33 4.68 -2.66 3.36 -3 2 C-2.01 1.34 -1.02 0.68 0 0 Z " fill="#E4E2DA" transform="translate(311,370)"/>
<path d="M0 0 C0 0.99 0 1.98 0 3 C-0.83144531 3.25394531 -1.66289063 3.50789062 -2.51953125 3.76953125 C-4.14955078 4.28580078 -4.14955078 4.28580078 -5.8125 4.8125 C-6.89144531 5.14894531 -7.97039063 5.48539063 -9.08203125 5.83203125 C-11.86863221 6.94741771 -13.03683581 7.83866151 -15 10 C-15.66 10 -16.32 10 -17 10 C-16.72485352 8.10644531 -16.72485352 8.10644531 -16 6 C-13.28555039 4.71498368 -10.76555462 3.69671 -7.9375 2.75 C-7.17888672 2.481875 -6.42027344 2.21375 -5.63867188 1.9375 C-3.76411958 1.27728033 -1.88265428 0.63674891 0 0 Z " fill="#113712" transform="translate(678,925)"/>
<path d="M0 0 C0.66 0.33 1.32 0.66 2 1 C-0.97 3.97 -3.94 6.94 -7 10 C-7.66 9.34 -8.32 8.68 -9 8 C-9.99 8.495 -9.99 8.495 -11 9 C-10.67 8.01 -10.34 7.02 -10 6 C-8.34302621 5.30959426 -6.6744239 4.6469365 -5 4 C-3.29705213 2.71332828 -1.62053812 1.38903267 0 0 Z " fill="#EDEDE7" transform="translate(442,389)"/>
<path d="M0 0 C1.32 1.32 2.64 2.64 4 4 C4.66 3.67 5.32 3.34 6 3 C8.0625 5.8125 8.0625 5.8125 10 9 C9.67 9.99 9.34 10.98 9 12 C5.7 8.7 2.4 5.4 -1 2 C-0.67 1.34 -0.34 0.68 0 0 Z " fill="#EEEEE8" transform="translate(610,278)"/>
<path d="M0 0 C4.00410788 1.33470263 4.70666202 3.55999303 7 7 C7.99 7.33 8.98 7.66 10 8 C11.25 10.375 11.25 10.375 12 13 C11.67 13.99 11.34 14.98 11 16 C9.16283711 13.52365012 7.33092199 11.04346678 5.5 8.5625 C4.97535156 7.85544922 4.45070313 7.14839844 3.91015625 6.41992188 C3.41386719 5.74638672 2.91757812 5.07285156 2.40625 4.37890625 C1.94541016 3.7557251 1.48457031 3.13254395 1.00976562 2.49047852 C0 1 0 1 0 0 Z " fill="#113512" transform="translate(863,239)"/>
<path d="M0 0 C1.32 0.66 2.64 1.32 4 2 C4 2.99 4 3.98 4 5 C5.30436727 6.66756036 5.30436727 6.66756036 7 8.1875 C7.8353125 8.98220703 7.8353125 8.98220703 8.6875 9.79296875 C9.120625 10.19128906 9.55375 10.58960938 10 11 C9.67 11.66 9.34 12.32 9 13 C5.37 9.37 1.74 5.74 -2 2 C-1.34 1.34 -0.68 0.68 0 0 Z " fill="#EDEDE9" transform="translate(702,361)"/>
<path d="M0 0 C1.09658936 3.28976808 0.79953138 4.71303767 0 8 C-2.31 8.66 -4.62 9.32 -7 10 C-6.02223933 8.51990357 -5.0427506 7.04094856 -4.0625 5.5625 C-3.51722656 4.73878906 -2.97195312 3.91507813 -2.41015625 3.06640625 C-1 1 -1 1 0 0 Z " fill="#EEEEE6" transform="translate(159,242)"/>
<path d="M0 0 C3.05806601 1.64091347 4.56875899 3.56899414 6.5625 6.375 C5.5725 6.87 5.5725 6.87 4.5625 7.375 C3.13020833 6.07291667 1.69791667 4.77083333 0.265625 3.46875 C-1.66110515 2.01475508 -1.66110515 2.01475508 -5.4375 2.375 C-5.4375 1.715 -5.4375 1.055 -5.4375 0.375 C-2.4375 -0.625 -2.4375 -0.625 0 0 Z " fill="#DEDED5" transform="translate(829.4375,201.625)"/>
<path d="M0 0 C0.66 0.33 1.32 0.66 2 1 C2.32374517 6.50366792 2.53286034 10.43672206 -1 15 C-1.66 13.68 -2.32 12.36 -3 11 C-2.01 11 -1.02 11 0 11 C0 7.37 0 3.74 0 0 Z " fill="#0F350F" transform="translate(843,496)"/>
<path d="M0 0 C-1.65 1.98 -3.3 3.96 -5 6 C-5.99 5.67 -6.98 5.34 -8 5 C-8.33 4.01 -8.66 3.02 -9 2 C-5.5647952 -0.29013653 -4.014669 -0.17842973 0 0 Z " fill="#EFECE7" transform="translate(476,224)"/>
<path d="M0 0 C1.258125 -0.04125 2.51625 -0.0825 3.8125 -0.125 C4.52019531 -0.14820312 5.22789062 -0.17140625 5.95703125 -0.1953125 C8 0 8 0 11 2 C11 2.66 11 3.32 11 4 C5.06 3.01 5.06 3.01 -1 2 C-0.67 1.34 -0.34 0.68 0 0 Z " fill="#18471D" transform="translate(599,76)"/>
<path d="M0 0 C1.32 0.66 2.64 1.32 4 2 C2.55746343 5.36591866 0.66735273 7.51047079 -2 10 C-2.66 9.67 -3.32 9.34 -4 9 C-2.68 7.68 -1.36 6.36 0 5 C-0.66 4.01 -1.32 3.02 -2 2 C-1.34 2 -0.68 2 0 2 C0 1.34 0 0.68 0 0 Z " fill="#F1EFE8" transform="translate(394,292)"/>
<path d="M0 0 C0.9075 0.33 1.815 0.66 2.75 1 C6.07045807 2.19605723 6.07045807 2.19605723 10 2 C10 2.66 10 3.32 10 4 C9.34 4 8.68 4 8 4 C8.66 5.98 9.32 7.96 10 10 C2.51708428 3.84965831 2.51708428 3.84965831 0 0 Z " fill="#EEF0E8" transform="translate(577,250)"/>
<path d="M0 0 C0.66 0.33 1.32 0.66 2 1 C2 1.99 2 2.98 2 4 C1.01 4.33 0.02 4.66 -1 5 C-1.33 5.99 -1.66 6.98 -2 8 C-2.66 8 -3.32 8 -4 8 C-3.50168276 4.31245243 -2.89932357 2.39509338 0 0 Z " fill="#EEECE5" transform="translate(452,560)"/>
<path d="M0 0 C2 1 2 1 4 4 C-0.75 6 -0.75 6 -3 6 C-4.34882408 6.63474075 -5.6846659 7.29848848 -7 8 C-6.02133662 6.85373678 -5.04205413 5.70800212 -4.0625 4.5625 C-3.51722656 3.92441406 -2.97195313 3.28632813 -2.41015625 2.62890625 C-1.63204305 1.73008851 -0.84063472 0.84063472 0 0 Z " fill="#F0F0EA" transform="translate(290,477)"/>
<path d="M0 0 C4.04161955 1.34484714 6.38678154 3.0505162 9.3125 6.125 C10.00988281 6.84945313 10.70726562 7.57390625 11.42578125 8.3203125 C11.94527344 8.87460937 12.46476563 9.42890625 13 10 C9.47967572 10 8.5614657 9.29648649 6 7 C6 6.34 6 5.68 6 5 C5.01 5 4.02 5 3 5 C1.3125 2.5 1.3125 2.5 0 0 Z " fill="#0E3311" transform="translate(631,438)"/>
<path d="M0 0 C0.66 0.33 1.32 0.66 2 1 C0.02 2.98 -1.96 4.96 -4 7 C-6.475 6.01 -6.475 6.01 -9 5 C-8.01 4.01 -7.02 3.02 -6 2 C-5.01 2.33 -4.02 2.66 -3 3 C-2.01 2.01 -1.02 1.02 0 0 Z " fill="#EDEBE6" transform="translate(488,347)"/>
<path d="M0 0 C0.33 0 0.66 0 1 0 C1 2.31 1 4.62 1 7 C1.66 7 2.32 7 3 7 C2.01 10.96 1.02 14.92 0 19 C-0.33 19 -0.66 19 -1 19 C-0.67 12.73 -0.34 6.46 0 0 Z " fill="#DCDAD1" transform="translate(69,528)"/>
<path d="M0 0 C0.99 0 1.98 0 3 0 C3 1.32 3 2.64 3 4 C5.97 4.495 5.97 4.495 9 5 C6.50935112 5.68707555 4.62113708 6 2 6 C1.67 6.99 1.34 7.98 1 9 C0.67 6.03 0.34 3.06 0 0 Z " fill="#E2DFD7" transform="translate(71,451)"/>
<path d="M0 0 C1.32 0 2.64 0 4 0 C3.6875 1.875 3.6875 1.875 3 4 C2.01 4.66 1.02 5.32 0 6 C-0.66 5.67 -1.32 5.34 -2 5 C-1.125 1.125 -1.125 1.125 0 0 Z " fill="#DCDBD4" transform="translate(336,483)"/>
<path d="M0 0 C0.99 0.33 1.98 0.66 3 1 C2.07038578 2.15224028 1.1309875 3.29659176 0.1875 4.4375 C-0.59560547 5.39462891 -0.59560547 5.39462891 -1.39453125 6.37109375 C-3 8 -3 8 -6 9 C-5.67 7.35 -5.34 5.7 -5 4 C-4.01 4 -3.02 4 -2 4 C-1.34 2.68 -0.68 1.36 0 0 Z " fill="#ECEEE6" transform="translate(203,469)"/>
<path d="M0 0 C0.66 0 1.32 0 2 0 C2 0.99 2 1.98 2 3 C3.32 2.01 4.64 1.02 6 0 C6.66 0.33 7.32 0.66 8 1 C6.375 3.0625 6.375 3.0625 4 5 C0.75 4.75 0.75 4.75 -2 4 C-1.34 2.68 -0.68 1.36 0 0 Z " fill="#EFECE6" transform="translate(286,390)"/>
<path d="M0 0 C0.66 0.33 1.32 0.66 2 1 C0.10019993 4.51463012 -1.56635317 6.89550678 -5 9 C-5.66 9 -6.32 9 -7 9 C-5.44499019 5.18315774 -2.96404505 2.80804268 0 0 Z " fill="#043308" transform="translate(382,310)"/>
<path d="M0 0 C2 1 2 1 3 2 C3.66 1.67 4.32 1.34 5 1 C5 1.99 5 2.98 5 4 C0.56923077 6.09230769 0.56923077 6.09230769 -2.3125 5.625 C-2.869375 5.41875 -3.42625 5.2125 -4 5 C-2.68 4.34 -1.36 3.68 0 3 C0 2.01 0 1.02 0 0 Z " fill="#EFEDE7" transform="translate(638,934)"/>
<path d="M0 0 C0.66 1.32 1.32 2.64 2 4 C0.68 5.32 -0.64 6.64 -2 8 C-2.99 7.67 -3.98 7.34 -5 7 C-4.34 6.34 -3.68 5.68 -3 5 C-1.97695052 3.34738161 -0.97383946 1.68208635 0 0 Z " fill="#093E0F" transform="translate(738,768)"/>
<path d="M0 0 C0.33 0 0.66 0 1 0 C1 2.97 1 5.94 1 9 C-0.98 9.99 -0.98 9.99 -3 11 C-2.44894091 7.0507432 -1.61064629 3.65079826 0 0 Z " fill="#123E14" transform="translate(926,674)"/>
<path d="M0 0 C0 3.38023517 -0.87455622 5.83468937 -2 9 C-2.99 9 -3.98 9 -5 9 C-5.3125 6.75 -5.3125 6.75 -5 4 C-2.5 1.6875 -2.5 1.6875 0 0 Z " fill="#F0EBE6" transform="translate(79,579)"/>
<path d="M0 0 C0.66 0 1.32 0 2 0 C2 3.63 2 7.26 2 11 C-1 8 -1 8 -1.25 4.375 C-1 1 -1 1 0 0 Z " fill="#18511E" transform="translate(957,475)"/>
<path d="M0 0 C2.62187494 1.04874998 3.79371361 1.64931313 5.25 4.125 C5.4975 4.74375 5.745 5.3625 6 6 C5.34 6.66 4.68 7.32 4 8 C0 2.25 0 2.25 0 0 Z " fill="#E0E0D9" transform="translate(567,326)"/>
<path d="M0 0 C-1.98 0.33 -3.96 0.66 -6 1 C-6 1.66 -6 2.32 -6 3 C-7.98 3.33 -9.96 3.66 -12 4 C-11.34 3.67 -10.68 3.34 -10 3 C-10 2.34 -10 1.68 -10 1 C-3.71428571 -1.42857143 -3.71428571 -1.42857143 0 0 Z " fill="#09370D" transform="translate(639,941)"/>
<path d="M0 0 C1.32 0.99 2.64 1.98 4 3 C3.34 3 2.68 3 2 3 C1.01 6.3 0.02 9.6 -1 13 C-1.33 13 -1.66 13 -2 13 C-1.85851011 11.3954444 -1.71164314 9.79136233 -1.5625 8.1875 C-1.48128906 7.29417969 -1.40007813 6.40085937 -1.31640625 5.48046875 C-1 3 -1 3 0 0 Z " fill="#07300A" transform="translate(949,597)"/>
<path d="M0 0 C1.32 0.66 2.64 1.32 4 2 C3.34 3.98 2.68 5.96 2 8 C1.01 8 0.02 8 -1 8 C-0.67 5.36 -0.34 2.72 0 0 Z " fill="#DFDFD6" transform="translate(745,488)"/>
<path d="M0 0 C0.68359375 1.796875 0.68359375 1.796875 1 4 C-0.21484375 5.703125 -0.21484375 5.703125 -1.9375 7.25 C-2.50339844 7.77078125 -3.06929688 8.2915625 -3.65234375 8.828125 C-4.09707031 9.21484375 -4.54179687 9.6015625 -5 10 C-5.66 9.67 -6.32 9.34 -7 9 C-6.401875 8.443125 -5.80375 7.88625 -5.1875 7.3125 C-3.0136554 5.01443571 -1.53101917 2.75583451 0 0 Z " fill="#053208" transform="translate(459,318)"/>
<path d="M0 0 C0.66 1.32 1.32 2.64 2 4 C1.01 4.99 0.02 5.98 -1 7 C-1.99 6.01 -2.98 5.02 -4 4 C-2.68 2.68 -1.36 1.36 0 0 Z " fill="#114717" transform="translate(397,296)"/>
<path d="M0 0 C0.99 0.33 1.98 0.66 3 1 C0.375 5.875 0.375 5.875 -3 7 C-2.38722388 4.03824877 -1.74627478 2.61941217 0 0 Z " fill="#DFDFD7" transform="translate(497,201)"/>
<path d="M0 0 C3.84177074 0.30329769 6.09427672 1.52475424 9 4 C6 5 6 5 3 4 C3 3.34 3 2.68 3 2 C1.35 2 -0.3 2 -2 2 C-1.34 1.34 -0.68 0.68 0 0 Z " fill="#DDE0D6" transform="translate(547,545)"/>
<path d="M0 0 C3.465 1.485 3.465 1.485 7 3 C7 3.99 7 4.98 7 6 C6.236875 5.67 5.47375 5.34 4.6875 5 C2.00930865 3.82563314 2.00930865 3.82563314 -1 4 C-0.67 2.68 -0.34 1.36 0 0 Z " fill="#114919" transform="translate(696,498)"/>
<path d="M0 0 C0.66 0 1.32 0 2 0 C2.33 1.32 2.66 2.64 3 4 C2.01 4.66 1.02 5.32 0 6 C-0.99 5.34 -1.98 4.68 -3 4 C-3 3.34 -3 2.68 -3 2 C-2.01 2 -1.02 2 0 2 C0 1.34 0 0.68 0 0 Z " fill="#E0DED5" transform="translate(242,432)"/>
<path d="M0 0 C2.475 0.99 2.475 0.99 5 2 C2.03312999 3.64826111 -0.65626525 4.44271087 -4 5 C-2.68 3.35 -1.36 1.7 0 0 Z " fill="#EFEEE8" transform="translate(228,170)"/>
<path d="M0 0 C2.64 0 5.28 0 8 0 C8 1.65 8 3.3 8 5 C7.01 5 6.02 5 5 5 C5 4.34 5 3.68 5 3 C4.01 2.67 3.02 2.34 2 2 C1.34 1.34 0.68 0.68 0 0 Z " fill="#F1EFE9" transform="translate(563,73)"/>
<path d="M0 0 C0.99 0.66 1.98 1.32 3 2 C1.95125002 4.62187494 1.35068687 5.79371361 -1.125 7.25 C-1.74375 7.4975 -2.3625 7.745 -3 8 C-2.690625 7.236875 -2.38125 6.47375 -2.0625 5.6875 C-1.32106407 3.81210323 -0.63771783 1.91315348 0 0 Z " fill="#033709" transform="translate(337,428)"/>
<path d="M0 0 C1.85625 0.061875 1.85625 0.061875 3.75 0.125 C2.54296875 1.64453125 2.54296875 1.64453125 0.75 3.125 C-1.51171875 3.19921875 -1.51171875 3.19921875 -3.9375 2.8125 C-5.14986328 2.63267578 -5.14986328 2.63267578 -6.38671875 2.44921875 C-7.00160156 2.34222656 -7.61648438 2.23523438 -8.25 2.125 C-5.3504339 0.46623921 -3.33364791 -0.1111216 0 0 Z " fill="#0E5218" transform="translate(466.25,68.875)"/>
<path d="M0 0 C0 3 0 3 -2.5 5.6875 C-3.325 6.450625 -4.15 7.21375 -5 8 C-5 6.35 -5 4.7 -5 3 C-4.360625 2.690625 -3.72125 2.38125 -3.0625 2.0625 C-1.06389179 1.1654837 -1.06389179 1.1654837 0 0 Z " fill="#EDEEE9" transform="translate(865,781)"/>
<path d="M0 0 C2.99324263 1.0975223 3.84610901 1.67682892 5.25 4.625 C5.4975 5.40875 5.745 6.1925 6 7 C5.01 7.495 5.01 7.495 4 8 C2.3372974 5.32521756 1.00016187 3.0004856 0 0 Z " fill="#1D421E" transform="translate(735,532)"/>
<path d="M0 0 C0.99 0.33 1.98 0.66 3 1 C2.67 3.64 2.34 6.28 2 9 C1.67 8.01 1.34 7.02 1 6 C0.01 5.67 -0.98 5.34 -2 5 C-1.34 3.35 -0.68 1.7 0 0 Z " fill="#E3DFD8" transform="translate(949,439)"/>
<path d="M0 0 C3.875 1.75 3.875 1.75 5 4 C2.69 4.66 0.38 5.32 -2 6 C-1.67 5.38125 -1.34 4.7625 -1 4.125 C0.14193235 2.08981656 0.14193235 2.08981656 0 0 Z " fill="#124618" transform="translate(612,420)"/>
<path d="M0 0 C1.65 0 3.3 0 5 0 C4.34 1.32 3.68 2.64 3 4 C2.01 4 1.02 4 0 4 C0 2.68 0 1.36 0 0 Z " fill="#D9DBD1" transform="translate(304,376)"/>
<path d="M0 0 C0.99 0.99 1.98 1.98 3 3 C1.68 4.32 0.36 5.64 -1 7 C-1.625 4.625 -1.625 4.625 -2 2 C-1.34 1.34 -0.68 0.68 0 0 Z " fill="#144A1A" transform="translate(438,336)"/>
<path d="M0 0 C-5.17578125 3.22265625 -5.17578125 3.22265625 -7 4 C-7.99 3.67 -8.98 3.34 -10 3 C-9 1 -9 1 -5.5625 -0.1875 C-2 -1 -2 -1 0 0 Z " fill="#0A370E" transform="translate(303,121)"/>
<path d="M0 0 C1.98 0.495 1.98 0.495 4 1 C4 1.99 4 2.98 4 4 C3.01 4.33 2.02 4.66 1 5 C0.34 4.34 -0.32 3.68 -1 3 C-0.67 2.01 -0.34 1.02 0 0 Z " fill="#E1E1D8" transform="translate(740,889)"/>
<path d="M0 0 C0.66 0.33 1.32 0.66 2 1 C1.0479279 2.00596297 0.08812654 3.00461563 -0.875 4 C-1.40867188 4.556875 -1.94234375 5.11375 -2.4921875 5.6875 C-4 7 -4 7 -6 7 C-6 6.01 -6 5.02 -6 4 C-3.5625 2.375 -3.5625 2.375 -1 1 C-0.67 0.67 -0.34 0.34 0 0 Z " fill="#0B310C" transform="translate(243,518)"/>
<path d="M0 0 C3.05515845 2.0367723 3.60256625 2.80586573 5 6 C5.33 6.66 5.66 7.32 6 8 C2.63279613 6.60667426 1.0140476 5.0210714 -1 2 C-0.67 1.34 -0.34 0.68 0 0 Z " fill="#033206" transform="translate(693,436)"/>
<path d="M0 0 C2.97 0.495 2.97 0.495 6 1 C4.68 2.65 3.36 4.3 2 6 C1.34 5.67 0.68 5.34 0 5 C0.66 4.34 1.32 3.68 2 3 C1.34 2.01 0.68 1.02 0 0 Z " fill="#F2F1EC" transform="translate(488,207)"/>
</svg>
